<svg xmlns="http://www.w3.org/2000/svg" width="27.006" height="32.258" viewBox="0 0 27.006 32.258">
  <path id="icons8-youtube" d="M16.392,4.975a.517.517,0,0,0-.464.322L13.787,9.728,11.646,5.3a.491.491,0,0,0-.913-.012.678.678,0,0,0,0,.592l2.53,5.238V15.14a.526.526,0,1,0,1.043,0V11.114l2.53-5.237a.677.677,0,0,0,0-.6A.514.514,0,0,0,16.392,4.975Zm7.254,4.184a.567.567,0,0,0-.513.608V13.05a2.541,2.541,0,0,0,2.339,2.689.463.463,0,0,0,.181-.042A2.551,2.551,0,0,0,27.81,13.05V9.766a.526.526,0,1,0-1.043,0V13.05a1.309,1.309,0,1,1-2.592,0V9.766a.648.648,0,0,0-.153-.433.488.488,0,0,0-.377-.175Zm-4.406.008A2.541,2.541,0,0,0,16.9,11.856V13.05a2.541,2.541,0,0,0,2.339,2.689.463.463,0,0,0,.181-.042,2.551,2.551,0,0,0,2.158-2.647V11.856a2.551,2.551,0,0,0-2.157-2.647.463.463,0,0,0-.174-.041H19.24Zm0,1.2a1.4,1.4,0,0,1,1.3,1.49V13.05a1.309,1.309,0,1,1-2.592,0V11.856A1.4,1.4,0,0,1,19.24,10.366Zm.176,7.757c-3.711,0-5.943.057-6.895.08l-.435.008h-.021c-.391.024-.771.038-1.137.05A6.982,6.982,0,0,0,8.04,18.7,3.33,3.33,0,0,0,6.5,21.174q0,.015-.006.029A41.586,41.586,0,0,0,6,27.589q0,.014,0,.028c.015.377.026.764.037,1.158h0l.007.261a22.026,22.026,0,0,0,.554,5.419,3.182,3.182,0,0,0,2.714,2.508h0c1.885.177,6.626.268,10.189.268h0c3.566,0,8.307-.091,10.188-.271h0a3.183,3.183,0,0,0,2.716-2.508,21.992,21.992,0,0,0,.554-5.419h0l0-.154h0c.011-.429.024-.849.039-1.221q0-.014,0-.028a41.734,41.734,0,0,0-.489-6.382q0-.015-.005-.029A3.393,3.393,0,0,0,30.962,18.7a6.878,6.878,0,0,0-2.891-.442h0c-.366-.012-.746-.025-1.091-.047h-.029l-.526-.012c-.945-.023-3.164-.078-6.834-.078h-.172Zm0,1.2h.173c3.662,0,5.867.054,6.812.077,0,0,.429.013.549.013.355.022.733.036,1.091.048a6.925,6.925,0,0,1,2.5.338c.465.238.719.606.953,1.694a40.811,40.811,0,0,1,.468,6.138c-.015.377-.026.792-.038,1.213l0,.155h0a21.9,21.9,0,0,1-.5,5.062c-.338,1.118-.765,1.6-1.819,1.707-1.762.168-6.551.265-10.1.266h0c-3.546,0-8.332-.1-10.1-.264-1.053-.1-1.481-.589-1.818-1.707A21.925,21.925,0,0,1,7.081,29s0,0,0,0l-.007-.261h0c-.01-.384-.02-.768-.035-1.149a40.644,40.644,0,0,1,.476-6.14c.229-1.067.478-1.423.943-1.657a7.051,7.051,0,0,1,2.5-.334c.36-.012.742-.026,1.141-.05l.442-.008h0C13.5,19.377,15.715,19.321,19.414,19.321ZM11.183,21.1a.456.456,0,0,0-.071.008h-2a.605.605,0,0,0,0,1.2H10.67v8.356a.526.526,0,1,0,1.043,0V22.306h1.556a.605.605,0,0,0,0-1.2h-2a.454.454,0,0,0-.089-.008Zm9.347,0a.567.567,0,0,0-.513.608V25.2a.688.688,0,0,0,0,.184V30.57a.658.658,0,0,0,.141.51l.016.02a.48.48,0,0,0,.443.163h1.219a3.052,3.052,0,0,0,2.817-3.055.677.677,0,0,0,.041-.231,3.1,3.1,0,0,0-2.858-3.286h-.777V21.707a.648.648,0,0,0-.153-.433.488.488,0,0,0-.377-.175ZM14.3,24.682a.567.567,0,0,0-.513.608v3.284a2.551,2.551,0,0,0,2.157,2.647.463.463,0,0,0,.174.041h.007a.463.463,0,0,0,.181-.042,2.551,2.551,0,0,0,2.158-2.647V25.289a.526.526,0,1,0-1.043,0v3.284a1.4,1.4,0,0,1-1.3,1.49,1.4,1.4,0,0,1-1.3-1.49V25.289a.648.648,0,0,0-.153-.433A.488.488,0,0,0,14.3,24.682Zm14.288.008a2.541,2.541,0,0,0-2.339,2.689v.205a.688.688,0,0,0,0,.184v.8a2.541,2.541,0,0,0,2.339,2.689.473.473,0,0,0,.265-.09A2.342,2.342,0,0,0,30.7,29.726a.641.641,0,0,0-.246-.8.493.493,0,0,0-.694.283,1.3,1.3,0,0,1-1.172.852,1.4,1.4,0,0,1-1.3-1.49v-.3H30.4a.489.489,0,0,0,.369-.175.647.647,0,0,0,.153-.424v-.3A2.541,2.541,0,0,0,28.587,24.69Zm-7.527,1.2h.777a2.108,2.108,0,0,1,0,4.175h-.777Zm7.527,0a1.31,1.31,0,0,1,1.189,1.189H27.4A1.31,1.31,0,0,1,28.587,25.889ZM9.114,32.454a.562.562,0,0,0-.519.6v1.194a.524.524,0,1,0,1.039,0V33.051A.562.562,0,0,0,9.114,32.454Zm2.6,0a.562.562,0,0,0-.519.6v1.194a.524.524,0,1,0,1.039,0V33.051A.562.562,0,0,0,11.71,32.454Zm2.6,0a.562.562,0,0,0-.519.6v1.194a.524.524,0,1,0,1.039,0V33.051A.562.562,0,0,0,14.307,32.454Zm2.6,0a.562.562,0,0,0-.519.6v1.194a.524.524,0,1,0,1.039,0V33.051A.562.562,0,0,0,16.9,32.454Zm2.6,0a.562.562,0,0,0-.519.6v1.194a.524.524,0,1,0,1.039,0V33.051A.562.562,0,0,0,19.5,32.454Zm2.6,0a.562.562,0,0,0-.519.6v1.194a.524.524,0,1,0,1.039,0V33.051A.562.562,0,0,0,22.1,32.454Zm2.6,0a.562.562,0,0,0-.519.6v1.194a.524.524,0,1,0,1.039,0V33.051A.562.562,0,0,0,24.692,32.454Zm2.6,0a.562.562,0,0,0-.519.6v1.194a.524.524,0,1,0,1.039,0V33.051A.562.562,0,0,0,27.288,32.454Zm2.6,0a.562.562,0,0,0-.519.6v1.194a.524.524,0,1,0,1.039,0V33.051A.562.562,0,0,0,29.885,32.454Z" transform="translate(-5.996 -4.975)" fill="#fff"/>
</svg>
