<svg xmlns="http://www.w3.org/2000/svg" width="33" height="32" viewBox="0 0 33 32">
  <path id="icons8-logo-discord" d="M12.15,8.508a1.164,1.164,0,0,0-.312.048A20.862,20.862,0,0,0,5.41,11.613,3.181,3.181,0,0,0,4.284,13.2,82.8,82.8,0,0,0,.658,32.217a3.972,3.972,0,0,0,.925,2.974,22.555,22.555,0,0,0,6.908,5.184,1.271,1.271,0,0,0,.555.131,1.6,1.6,0,0,0,1.418-1.133l1.246-3.242a19.755,19.755,0,0,0,10.865,0l1.246,3.242a1.6,1.6,0,0,0,1.418,1.133,1.27,1.27,0,0,0,.555-.131A22.521,22.521,0,0,0,32.7,35.189a3.969,3.969,0,0,0,.925-2.972A82.723,82.723,0,0,0,30,13.2a3.181,3.181,0,0,0-1.126-1.585A20.934,20.934,0,0,0,22.45,8.556c-.843-.235-1.667.428-1.875,1.507l-.226,1.187a14.741,14.741,0,0,0-6.411,0l-.228-1.187A1.706,1.706,0,0,0,12.15,8.508Zm.115,1.379a.608.608,0,0,1,.423.508l.214,1.12a12.641,12.641,0,0,0-4.477,2.312.826.826,0,0,0-.138.951.507.507,0,0,0,.436.3.455.455,0,0,0,.3-.118,13.109,13.109,0,0,1,8.123-2.691,13.109,13.109,0,0,1,8.123,2.691.457.457,0,0,0,.73-.179.823.823,0,0,0-.138-.951,12.661,12.661,0,0,0-4.477-2.309L21.6,10.4c.07-.361.347-.585.633-.505a20.019,20.019,0,0,1,6.146,2.926,1.879,1.879,0,0,1,.664.935,81.018,81.018,0,0,1,3.544,18.611,2.388,2.388,0,0,1-.559,1.78,21.535,21.535,0,0,1-6.594,4.949.491.491,0,0,1-.666-.331L23.626,35.8a21.1,21.1,0,0,0,3.731-1.729.776.776,0,0,0,.263-.9c-.119-.347-.432-.5-.695-.342a19.091,19.091,0,0,1-19.564,0c-.265-.155-.576,0-.695.342a.775.775,0,0,0,.263.9A21.035,21.035,0,0,0,10.66,35.8L9.521,38.762a.49.49,0,0,1-.666.331,21.535,21.535,0,0,1-6.594-4.949A2.383,2.383,0,0,1,1.7,32.362,81.046,81.046,0,0,1,5.246,13.751a1.883,1.883,0,0,1,.664-.933,20.019,20.019,0,0,1,6.146-2.926A.43.43,0,0,1,12.265,9.887Zm4.878,4.033a.622.622,0,0,0-.526.684v1.2a.622.622,0,0,0,.526.684.622.622,0,0,0,.526-.684V14.6A.62.62,0,0,0,17.143,13.919Zm-2.76.35a.423.423,0,0,0-.208.008.72.72,0,0,0-.388.828L14,16.282a.579.579,0,0,0,.514.524.414.414,0,0,0,.123-.019.717.717,0,0,0,.388-.826l-.22-1.176A.606.606,0,0,0,14.382,14.269Zm5.521,0a.609.609,0,0,0-.428.516l-.22,1.176a.717.717,0,0,0,.388.826.414.414,0,0,0,.123.019.579.579,0,0,0,.514-.524l.218-1.176a.72.72,0,0,0-.388-.828A.422.422,0,0,0,19.9,14.269Zm-8.362,1a.463.463,0,0,0-.2.072.792.792,0,0,0-.232.919l.428,1.1a.532.532,0,0,0,.471.374.422.422,0,0,0,.236-.075.788.788,0,0,0,.232-.919l-.428-1.1A.516.516,0,0,0,11.542,15.272Zm11.2,0a.523.523,0,0,0-.506.374l-.428,1.1a.787.787,0,0,0,.232.919.422.422,0,0,0,.236.075.532.532,0,0,0,.471-.374l.428-1.1a.792.792,0,0,0-.232-.919A.5.5,0,0,0,22.744,15.272ZM11.881,21.159c-1.741,0-3.157,2.149-3.157,4.789s1.416,4.789,3.157,4.789,3.157-2.149,3.157-4.789S13.622,21.159,11.881,21.159Zm10.524,0c-1.741,0-3.157,2.149-3.157,4.789s1.416,4.789,3.157,4.789,3.157-2.149,3.157-4.789S24.146,21.159,22.4,21.159ZM11.881,22.527c1.161,0,2.1,1.534,2.1,3.421s-.943,3.421-2.1,3.421-2.1-1.534-2.1-3.421S10.72,22.527,11.881,22.527Zm10.524,0c1.161,0,2.1,1.534,2.1,3.421s-.943,3.421-2.1,3.421-2.1-1.534-2.1-3.421S21.243,22.527,22.4,22.527Zm-10.082,15.1a.606.606,0,0,0-.428.513.719.719,0,0,0,.388.826,16.322,16.322,0,0,0,4.859.743c.491,0,.989-.021,1.478-.067a.649.649,0,0,0,.487-.73c-.021-.377-.269-.66-.561-.636a15.469,15.469,0,0,1-6.016-.641A.4.4,0,0,0,12.323,37.629Zm9.642,0a.4.4,0,0,0-.21.008c-.442.139-.89.257-1.332.353a.687.687,0,0,0-.434.788.591.591,0,0,0,.518.572.324.324,0,0,0,.088-.011c.467-.1.939-.227,1.406-.371a.717.717,0,0,0,.388-.826A.607.607,0,0,0,21.965,37.629Z" transform="translate(-0.643 -8.507)" fill="#fff"/>
</svg>
